<?xml version="1.0" standalone="no"?>
<!DOCTYPE svg PUBLIC "-//W3C//DTD SVG 20010904//EN"
 "http://www.w3.org/TR/2001/REC-SVG-20010904/DTD/svg10.dtd">
<svg version="1.0" xmlns="http://www.w3.org/2000/svg"
 width="626.000000pt" height="626.000000pt" viewBox="0 0 626.000000 626.000000"
 preserveAspectRatio="xMidYMid meet">

<g transform="translate(0.000000,626.000000) scale(0.100000,-0.100000)"
fill="#000000" stroke="none">
<path d="M915 5418 c-3 -8 -4 -68 -3 -134 3 -111 4 -119 23 -119 19 0 20 7 20
130 0 116 -2 130 -18 133 -9 2 -19 -3 -22 -10z"/>
<path d="M1327 5424 c-4 -4 -7 -65 -7 -136 0 -128 0 -129 23 -126 22 3 22 6
22 133 0 109 -2 130 -15 133 -9 1 -19 0 -23 -4z"/>
<path d="M1737 5423 c-4 -3 -7 -64 -7 -135 0 -128 0 -129 23 -126 21 3 22 8
25 113 2 61 0 120 -3 133 -5 21 -25 29 -38 15z"/>
<path d="M2147 5423 c-4 -3 -7 -64 -7 -135 0 -128 0 -129 23 -126 12 2 22 9
21 16 -1 6 -2 66 -2 132 -2 93 -5 120 -15 120 -8 0 -17 -3 -20 -7z"/>
<path d="M2548 5326 c-1 -58 -2 -118 -2 -133 -1 -21 4 -29 20 -31 12 -2 24 3
26 10 3 7 2 67 -1 133 -5 103 -8 120 -23 123 -16 3 -18 -8 -20 -102z"/>
<path d="M2959 5403 c-2 -15 -4 -75 -4 -133 0 -102 1 -105 23 -108 l23 -3 -3
133 c-3 113 -5 133 -19 136 -12 2 -18 -6 -20 -25z"/>
<path d="M3365 5418 c-3 -8 -4 -68 -3 -134 3 -115 4 -119 26 -122 l23 -3 -3
133 c-3 117 -5 133 -21 136 -9 2 -19 -3 -22 -10z"/>
<path d="M3775 5418 c-3 -8 -4 -68 -3 -134 3 -111 4 -119 23 -119 19 0 20 7
20 130 0 116 -2 130 -18 133 -9 2 -19 -3 -22 -10z"/>
<path d="M4187 5424 c-4 -4 -7 -65 -7 -136 0 -128 0 -129 23 -126 22 3 22 6
22 133 0 109 -2 130 -15 133 -9 1 -19 0 -23 -4z"/>
<path d="M4595 5418 c-3 -8 -4 -68 -3 -134 3 -111 4 -119 23 -119 19 0 20 7
20 130 0 116 -2 130 -18 133 -9 2 -19 -3 -22 -10z"/>
<path d="M690 4875 c0 -30 5 -55 10 -55 6 0 10 16 10 35 0 19 2 35 5 35 3 0
20 -17 39 -37 l34 -37 3 57 c2 31 1 57 -3 57 -5 0 -8 -17 -8 -37 l-1 -38 -33
38 c-46 51 -56 48 -56 -18z"/>
<path d="M842 4918 c-7 -7 -12 -27 -12 -45 0 -26 6 -36 24 -44 56 -26 112 23
88 76 -9 20 -19 25 -50 25 -21 0 -43 -5 -50 -12z m78 -13 c15 -18 6 -61 -16
-69 -19 -7 -50 8 -58 29 -16 42 45 75 74 40z"/>
<path d="M970 4921 c0 -21 43 -102 52 -99 13 5 60 108 49 108 -4 0 -16 -18
-26 -40 -10 -22 -21 -40 -25 -40 -4 0 -13 18 -20 40 -12 36 -30 55 -30 31z"/>
<path d="M1100 4875 l0 -55 48 1 c44 2 45 2 12 8 -48 8 -53 38 -8 44 l33 4
-32 1 c-25 2 -33 7 -33 21 0 15 8 21 38 24 34 3 33 4 -10 5 l-48 2 0 -55z"/>
<path d="M1220 4873 c0 -59 15 -65 22 -8 l3 30 19 -34 18 -33 21 33 22 34 3
-37 c5 -57 18 -46 21 17 2 66 -16 74 -42 19 -19 -39 -30 -37 -52 7 -23 44 -35
35 -35 -28z"/>
<path d="M1384 4915 c3 -9 6 -34 6 -56 0 -37 2 -39 31 -39 39 0 72 17 62 33
-4 7 -7 25 -8 42 0 29 -2 30 -49 33 -42 3 -48 1 -42 -13z m74 -12 c-2 -12 -12
-18 -28 -18 -16 0 -26 6 -28 18 -3 13 3 17 28 17 25 0 31 -4 28 -17z m8 -44
c3 -6 0 -15 -7 -20 -21 -14 -53 -6 -57 14 -3 13 3 17 27 17 16 0 33 -5 37 -11z"/>
<path d="M1520 4875 l0 -55 43 2 c36 1 38 2 10 5 -25 3 -33 9 -33 24 0 14 7
19 25 19 14 0 25 4 25 9 0 5 -8 7 -18 4 -10 -2 -24 3 -31 11 -15 17 -9 21 39
29 15 3 8 5 -17 6 l-43 1 0 -55z"/>
<path d="M1630 4881 c0 -27 5 -53 10 -56 6 -3 10 1 10 9 0 26 21 29 44 7 25
-24 45 -29 27 -7 -9 11 -9 19 1 35 20 32 0 55 -51 59 l-41 3 0 -50z m75 14 c0
-14 -8 -21 -27 -23 -24 -3 -28 0 -28 23 0 23 4 26 28 23 19 -2 27 -9 27 -23z"/>
<path d="M1722 4713 c586 -2 1549 -2 2140 0 590 1 110 2 -1067 2 -1177 0
-1660 -1 -1073 -2z"/>
<path d="M1265 4608 c-7 -19 -1 -88 7 -88 4 0 8 15 10 33 l4 32 13 -27 c8 -16
18 -28 23 -28 5 0 14 12 20 28 l12 27 4 -32 c5 -52 22 -38 22 17 0 58 -20 68
-40 20 -7 -16 -15 -30 -19 -30 -4 0 -12 14 -18 30 -12 31 -30 39 -38 18z"/>
<path d="M1765 4610 c3 -5 12 -10 20 -10 9 0 15 -15 18 -47 l3 -48 2 48 c2 34
6 47 17 47 8 0 15 5 15 10 0 6 -18 10 -41 10 -24 0 -38 -4 -34 -10z"/>
<path d="M2244 4608 c2 -7 10 -30 17 -50 15 -46 27 -48 36 -8 8 44 20 45 33 5
6 -19 15 -35 19 -35 4 0 14 23 23 50 9 28 12 50 7 50 -5 0 -12 -13 -15 -30 -4
-16 -10 -30 -14 -30 -5 0 -13 14 -19 30 -5 17 -14 30 -19 30 -5 0 -12 -13 -15
-30 -4 -16 -11 -30 -15 -30 -5 0 -12 14 -15 30 -4 17 -11 30 -18 30 -6 0 -8
-6 -5 -12z"/>
<path d="M2760 4610 c0 -5 7 -10 15 -10 11 0 15 -11 15 -40 0 -53 18 -51 22 3
2 27 7 41 16 40 6 -2 12 2 12 7 0 6 -18 10 -40 10 -22 0 -40 -4 -40 -10z"/>
<path d="M3271 4568 c1 -29 4 -43 6 -31 3 14 13 23 31 26 l27 4 -28 2 c-21 1
-28 5 -25 19 2 11 11 16 26 14 12 -2 22 2 22 7 0 6 -13 11 -30 11 -30 0 -30
-1 -29 -52z"/>
<path d="M3767 4613 c-16 -15 -6 -43 18 -49 14 -3 25 -13 25 -21 0 -11 -7 -14
-25 -11 -14 3 -25 1 -25 -4 0 -5 15 -8 32 -6 42 4 49 31 12 50 -33 16 -32 34
2 31 13 -1 22 2 19 8 -7 10 -48 12 -58 2z"/>
<path d="M4510 4488 c0 -5 62 -7 138 -6 139 2 122 5 -46 10 -50 2 -92 0 -92
-4z"/>
<path d="M4500 4330 c0 -6 138 -10 395 -10 257 0 395 4 395 10 0 6 -138 10
-395 10 -257 0 -395 -4 -395 -10z"/>
<path d="M1277 4274 c-12 -13 4 -25 18 -14 16 13 35 5 35 -14 0 -7 -13 -25
-30 -41 -16 -16 -30 -32 -30 -37 0 -4 21 -7 48 -7 29 1 36 4 20 6 -33 5 -35
14 -8 38 13 12 20 29 18 44 -2 21 -9 27 -33 29 -17 2 -34 0 -38 -4z"/>
<path d="M1770 4270 c0 -5 9 -10 20 -10 19 0 20 -1 5 -24 -16 -23 -15 -25 7
-28 31 -4 30 -33 -2 -35 -43 -2 -46 -4 -21 -14 31 -12 58 -3 67 23 4 15 1 26
-12 35 -14 10 -15 16 -6 25 23 23 13 38 -23 38 -19 0 -35 -4 -35 -10z"/>
<path d="M2281 4244 c-28 -47 -27 -64 4 -64 16 0 25 -6 25 -15 0 -8 4 -15 9
-15 11 0 21 38 14 56 -6 16 -23 19 -23 4 0 -5 -7 -10 -16 -10 -13 0 -12 5 5
34 23 37 25 46 12 46 -5 0 -18 -16 -30 -36z"/>
<path d="M3270 4262 c-20 -16 -22 -24 -16 -65 8 -51 30 -66 66 -47 38 20 15
92 -25 76 -9 -3 -15 0 -15 9 0 9 10 15 25 15 28 0 34 15 9 24 -21 8 -19 9 -44
-12z m47 -68 c8 -21 -13 -42 -28 -27 -13 13 -5 43 11 43 6 0 13 -7 17 -16z"/>
<path d="M2760 4241 c0 -25 4 -30 28 -33 38 -4 36 -33 -3 -33 -38 -1 -39 -19
-2 -23 58 -7 80 51 27 71 -38 14 -39 34 -2 40 22 3 20 4 -10 6 -36 1 -38 -1
-38 -28z"/>
<path d="M3740 4250 c0 -11 5 -20 10 -20 6 0 10 5 10 10 0 6 9 10 20 10 25 0
25 -1 -5 -60 -18 -35 -21 -50 -12 -50 12 0 67 98 67 120 0 6 -20 10 -45 10
-38 0 -45 -3 -45 -20z"/>
<path d="M4682 4173 c108 -2 288 -2 400 0 112 1 23 2 -197 2 -220 0 -311 -1
-203 -2z"/>
<path d="M2375 4029 c-35 -17 -54 -18 -163 -13 -176 10 -226 -13 -286 -131
-14 -27 -37 -72 -51 -100 -16 -32 -25 -67 -25 -97 l0 -48 -35 0 c-22 0 -35 -5
-35 -13 0 -22 11 -27 31 -14 30 19 34 0 11 -48 -25 -52 -26 -55 -12 -55 5 0
20 21 33 46 l24 47 28 -48 c42 -73 179 -211 216 -219 70 -14 178 44 214 115
21 39 19 46 -15 53 -22 4 -35 15 -47 41 -16 33 -16 39 -2 63 20 37 61 41 93 9
21 -21 25 -22 29 -9 2 10 -3 34 -10 56 -29 85 -11 126 69 159 21 9 60 37 88
63 40 37 50 53 48 73 -2 21 -8 25 -27 23 -24 -2 -24 -2 -7 17 33 37 1 65 -45
41 -13 -7 -19 -7 -19 0 0 16 -61 10 -105 -11z"/>
<path d="M4490 4020 c0 -6 138 -10 395 -10 257 0 395 4 395 10 0 6 -138 10
-395 10 -257 0 -395 -4 -395 -10z"/>
<path d="M1280 3956 c-6 -8 -10 -25 -8 -38 2 -18 10 -24 36 -26 40 -4 38 -27
-2 -27 -29 1 -30 -18 -2 -23 27 -6 56 27 56 64 0 53 -50 85 -80 50z m56 -17
c3 -6 0 -17 -7 -25 -18 -17 -44 -2 -36 20 7 18 33 21 43 5z"/>
<path d="M1806 3954 c-19 -18 -21 -85 -4 -102 7 -7 25 -12 40 -12 22 0 31 6
39 27 14 39 2 82 -28 94 -31 12 -29 12 -47 -7z m54 -23 c13 -26 13 -43 -3 -65
-21 -28 -47 -10 -47 33 0 21 3 41 7 44 12 13 32 7 43 -12z"/>
<path d="M1713 3953 c13 -4 17 -15 17 -59 0 -30 5 -54 10 -54 6 0 10 27 10 60
0 59 0 60 -27 59 -17 -1 -21 -3 -10 -6z"/>
<path d="M2690 3950 c0 -5 7 -10 15 -10 12 0 15 -13 15 -55 0 -30 5 -55 10
-55 6 0 10 28 10 65 0 63 -1 65 -25 65 -14 0 -25 -4 -25 -10z"/>
<path d="M2779 3944 c-12 -15 -11 -16 19 -10 42 10 43 -11 2 -57 -16 -19 -30
-37 -30 -39 0 -2 20 -5 45 -7 26 -1 45 2 45 9 0 5 -11 10 -25 10 -30 0 -32 11
-5 35 30 27 23 69 -11 73 -15 2 -32 -4 -40 -14z"/>
<path d="M3694 3937 c14 -10 17 -24 15 -60 -3 -30 0 -47 7 -47 6 0 12 25 13
60 2 59 2 60 -25 60 -26 0 -26 -1 -10 -13z"/>
<path d="M3781 3916 c-27 -44 -26 -56 4 -56 16 0 25 -6 25 -15 0 -8 5 -15 10
-15 6 0 10 6 10 14 0 8 6 16 12 18 9 3 8 10 -5 23 -16 15 -20 16 -27 4 -5 -7
-12 -10 -16 -7 -4 4 1 19 10 32 18 29 20 36 7 36 -5 0 -19 -15 -30 -34z"/>
<path d="M4682 3863 c108 -2 288 -2 400 0 112 1 23 2 -197 2 -220 0 -311 -1
-203 -2z"/>
<path d="M3192 3748 l2 -63 3 53 c4 51 5 52 31 47 15 -3 20 -2 12 1 -8 4 -23
11 -32 16 -16 8 -18 3 -16 -54z"/>
<path d="M3285 3770 c3 -5 18 -11 33 -15 l28 -6 -12 -87 c-6 -48 -19 -123 -27
-167 -9 -44 -19 -102 -23 -130 -3 -27 -12 -72 -20 -100 -8 -27 -21 -83 -30
-123 -24 -117 -42 -139 -239 -300 -38 -31 -80 -65 -92 -76 -12 -10 -31 -24
-42 -30 -85 -47 -143 -95 -161 -131 -27 -56 -35 -180 -21 -327 6 -68 16 -186
22 -263 5 -77 17 -171 25 -210 9 -38 19 -95 24 -125 5 -35 6 -14 2 60 -16 275
-1 466 53 680 41 162 39 158 165 261 140 114 273 240 311 295 22 33 29 56 35
120 3 43 12 84 19 89 11 9 65 108 65 120 0 3 -14 5 -31 5 l-32 0 6 68 c4 37 7
79 7 94 0 21 6 29 26 34 24 6 44 38 44 70 0 8 -12 27 -26 41 -22 22 -25 33
-22 78 l3 53 -48 15 c-26 8 -45 11 -42 7z m108 -181 c7 -25 -8 -69 -23 -69 -5
0 -10 20 -10 45 0 48 23 64 33 24z m-23 -294 c0 -4 -8 -20 -17 -38 -17 -30
-18 -31 -21 -9 -5 32 4 52 23 52 8 0 15 -2 15 -5z"/>
<path d="M4500 3710 c0 -9 778 -3 789 6 2 2 -174 4 -392 4 -261 0 -397 -3
-397 -10z"/>
<path d="M3180 3656 c0 -14 4 -27 8 -30 5 -3 6 8 4 25 -5 35 -12 38 -12 5z"/>
<path d="M1210 3630 c0 -5 7 -10 15 -10 11 0 15 -12 15 -50 0 -27 5 -50 10
-50 6 0 10 27 10 60 0 57 -1 60 -25 60 -14 0 -25 -4 -25 -10z"/>
<path d="M1312 3628 c-18 -23 -23 -55 -12 -82 8 -23 15 -27 42 -24 29 3 33 6
33 33 0 25 -4 30 -27 33 -16 2 -28 9 -28 18 0 14 11 18 44 14 11 -1 15 3 12 9
-10 15 -51 14 -64 -1z m45 -64 c8 -21 -13 -42 -28 -27 -13 13 -5 43 11 43 6 0
13 -7 17 -16z"/>
<path d="M1710 3630 c0 -5 5 -10 10 -10 6 0 10 -25 10 -55 0 -30 5 -55 10 -55
6 0 10 28 10 65 0 58 -2 65 -20 65 -11 0 -20 -4 -20 -10z"/>
<path d="M2703 3623 c13 -4 17 -15 17 -59 0 -30 5 -54 10 -54 6 0 10 27 10 60
0 59 0 60 -27 59 -17 -1 -21 -3 -10 -6z"/>
<path d="M2787 3624 c-24 -25 8 -78 41 -67 17 7 15 -24 -3 -31 -8 -3 -22 -3
-30 0 -8 4 -15 1 -15 -6 0 -7 13 -10 32 -8 66 6 76 110 12 116 -16 2 -33 0
-37 -4z m50 -20 c8 -21 -13 -42 -28 -27 -13 13 -5 43 11 43 6 0 13 -7 17 -16z"/>
<path d="M3703 3624 c-25 -11 -12 -23 17 -17 22 4 30 2 30 -9 0 -8 -13 -27
-30 -43 -42 -40 -39 -55 10 -55 22 0 40 5 40 10 0 6 -9 10 -20 10 -25 0 -25 4
2 41 17 23 20 34 12 47 -11 18 -40 25 -61 16z"/>
<path d="M3800 3620 c0 -5 5 -10 10 -10 6 0 10 -25 10 -55 0 -30 5 -55 10 -55
6 0 10 28 10 65 0 58 -2 65 -20 65 -11 0 -20 -4 -20 -10z"/>
<path d="M3162 3568 c-5 -29 -20 -86 -31 -127 -12 -40 -20 -75 -18 -77 2 -2
12 24 21 58 10 35 23 72 28 83 10 18 22 115 14 115 -2 0 -8 -24 -14 -52z"/>
<path d="M4740 3560 c-216 -5 -202 -6 163 -8 259 -1 397 1 397 8 0 10 -120 10
-560 0z"/>
<path d="M1231 3317 c-14 -18 -2 -30 16 -15 10 8 17 8 25 0 9 -9 4 -22 -20
-51 -18 -22 -32 -42 -32 -45 0 -3 18 -6 40 -6 22 0 40 5 40 10 0 6 -9 10 -20
10 -11 0 -20 4 -20 8 0 5 9 17 20 27 11 10 20 26 20 35 0 35 -46 54 -69 27z"/>
<path d="M1358 3313 c20 -4 21 -6 7 -25 -13 -20 -12 -22 7 -32 31 -16 27 -31
-10 -34 -39 -4 -33 -22 8 -22 43 0 61 50 26 72 -8 5 -7 11 2 20 21 21 14 28
-25 27 -24 -1 -29 -3 -15 -6z"/>
<path d="M1717 3314 c-12 -13 4 -25 18 -14 16 13 35 5 35 -14 0 -7 -13 -25
-30 -41 -16 -16 -30 -32 -30 -37 0 -4 20 -8 45 -8 25 0 45 5 45 10 0 6 -12 10
-27 10 l-26 0 22 24 c32 34 25 70 -14 74 -17 2 -34 0 -38 -4z"/>
<path d="M1845 3280 c-14 -22 -25 -42 -25 -45 0 -3 14 -5 30 -5 20 0 30 -5 30
-15 0 -8 4 -15 9 -15 11 0 21 38 14 56 -6 16 -23 19 -23 4 0 -5 -7 -10 -16
-10 -13 0 -12 6 6 35 12 19 17 35 11 35 -6 0 -22 -18 -36 -40z"/>
<path d="M2709 3304 c-12 -15 -11 -16 19 -10 27 7 32 5 32 -11 0 -11 -13 -32
-30 -48 -16 -16 -30 -32 -30 -37 0 -4 20 -8 45 -8 25 0 45 5 45 10 0 6 -11 10
-25 10 -30 0 -31 4 -5 33 29 31 23 71 -11 75 -15 2 -32 -4 -40 -14z"/>
<path d="M2836 3305 c-19 -20 -21 -74 -3 -99 16 -22 55 -18 71 7 15 24 -4 51
-38 55 -35 4 -28 27 8 27 14 -1 25 4 23 10 -6 17 -43 17 -61 0z m50 -84 c-9
-14 -33 -14 -41 -1 -4 6 -1 18 6 26 11 13 14 13 27 0 8 -8 11 -19 8 -25z"/>
<path d="M3088 3295 c-4 -16 -9 -39 -12 -50 -4 -11 1 -5 9 14 9 18 14 41 13
50 -2 9 -7 3 -10 -14z"/>
<path d="M3111 3304 c0 -11 3 -14 6 -6 3 7 2 16 -1 19 -3 4 -6 -2 -5 -13z"/>
<path d="M3697 3304 c-12 -13 4 -25 18 -14 16 13 35 5 35 -14 0 -7 -13 -25
-30 -41 -16 -16 -30 -32 -30 -37 0 -4 20 -8 45 -8 25 0 45 5 45 10 0 6 -12 10
-27 10 l-26 0 22 24 c32 34 25 70 -14 74 -17 2 -34 0 -38 -4z"/>
<path d="M3817 3303 c-2 -4 -4 -30 -3 -58 1 -48 2 -50 32 -53 43 -4 55 15 46
69 -7 40 -10 44 -39 47 -17 2 -33 -1 -36 -5z m53 -23 c0 -21 -24 -28 -35 -10
-8 14 3 30 21 30 8 0 14 -9 14 -20z m6 -69 c-10 -16 -36 -13 -43 5 -8 22 18
37 36 20 7 -8 10 -19 7 -25z"/>
<path d="M2374 3251 c16 -17 16 -20 1 -35 -15 -15 -15 -17 -1 -22 9 -3 16 -14
16 -24 0 -13 7 -18 20 -17 19 1 19 2 -1 23 -17 19 -19 25 -8 42 10 17 10 23 0
36 -8 9 -20 16 -29 16 -13 0 -13 -3 2 -19z"/>
<path d="M3060 3211 c0 -6 -10 -16 -22 -21 -16 -6 -18 -9 -7 -9 19 -1 45 26
35 36 -3 3 -6 1 -6 -6z"/>
<path d="M1982 3157 c-50 -50 -52 -55 -35 -68 16 -12 17 -12 6 2 -10 13 -5 23
35 61 26 25 54 48 62 51 13 5 13 6 0 6 -9 1 -39 -23 -68 -52z"/>
<path d="M2093 3193 c9 -2 25 -2 35 0 9 3 1 5 -18 5 -19 0 -27 -2 -17 -5z"/>
<path d="M2248 3183 c18 -2 45 -2 60 0 15 2 0 4 -33 4 -33 0 -45 -2 -27 -4z"/>
<path d="M2965 3164 l-30 -15 30 6 c17 4 34 11 40 16 13 13 -5 10 -40 -7z"/>
<path d="M2633 3103 c147 -15 160 -15 190 0 23 12 25 15 7 10 -30 -9 -96 -9
-245 -1 -89 6 -81 4 48 -9z"/>
<path d="M1908 3083 c7 -3 16 -2 19 1 4 3 -2 6 -13 5 -11 0 -14 -3 -6 -6z"/>
<path d="M1977 3084 c-15 -15 -6 -32 21 -37 53 -11 153 -43 148 -48 -3 -3 22
-3 57 -1 59 3 138 25 164 45 7 5 18 5 25 1 8 -4 10 -3 5 2 -5 5 -80 9 -166 9
-103 0 -163 4 -172 11 -18 15 -73 27 -82 18z"/>
<path d="M2858 3070 c-14 -12 -32 -16 -75 -14 l-58 3 63 -10 c52 -8 65 -7 78
6 22 21 13 36 -8 15z"/>
<path d="M1800 3056 c-33 -12 -33 -13 -10 -19 13 -3 31 -2 39 3 9 5 12 10 6
10 -5 1 -1 5 10 10 32 14 -5 10 -45 -4z"/>
<path d="M1700 3020 c-25 -10 -38 -19 -29 -19 8 -1 33 8 55 19 50 25 33 25
-26 0z"/>
<path d="M4568 2981 c-64 -20 -121 -41 -125 -45 -10 -11 1 -8 144 35 62 19
113 37 113 42 0 10 0 10 -132 -32z"/>
<path d="M5135 2994 c-44 -14 -143 -45 -220 -69 -366 -113 -437 -137 -432
-142 6 -6 728 216 742 228 14 14 -2 11 -90 -17z"/>
<path d="M1200 3000 c0 -5 10 -10 22 -10 17 0 19 -3 10 -12 -18 -18 -14 -35 9
-41 30 -8 18 -32 -15 -30 -30 2 -35 -13 -6 -22 25 -8 60 11 60 32 0 9 -7 24
-15 33 -14 15 -14 18 0 30 25 21 17 30 -25 30 -22 0 -40 -4 -40 -10z"/>
<path d="M1320 2991 c-34 -65 27 -143 74 -95 19 18 21 85 4 102 -19 19 -66 15
-78 -7z m70 -36 c0 -36 -10 -55 -30 -55 -32 0 -41 57 -14 85 20 20 44 4 44
-30z"/>
<path d="M1620 2990 c-8 -5 -10 -10 -5 -10 6 0 17 5 25 10 8 5 11 10 5 10 -5
0 -17 -5 -25 -10z"/>
<path d="M1565 2961 c-16 -10 -52 -43 -80 -72 -49 -52 -49 -53 -6 -14 24 22
51 47 60 55 9 8 28 23 41 32 34 23 22 22 -15 -1z"/>
<path d="M4888 2756 c-314 -99 -393 -126 -364 -126 7 0 196 58 571 175 150 47
196 65 165 64 -8 0 -176 -51 -372 -113z"/>
<path d="M1401 2797 c-21 -23 -27 -34 -16 -34 8 0 13 3 10 5 -2 3 7 16 21 29
15 13 24 26 22 28 -2 3 -19 -10 -37 -28z"/>
<path d="M4950 2613 c-201 -63 -371 -116 -379 -119 -8 -2 -11 -7 -8 -10 5 -5
746 222 756 232 17 16 -47 -2 -369 -103z"/>
<path d="M1309 2693 l-24 -28 28 24 c25 23 32 31 24 31 -2 0 -14 -12 -28 -27z"/>
<path d="M1259 2633 c-13 -16 -12 -17 4 -4 9 7 17 15 17 17 0 8 -8 3 -21 -13z"/>
<path d="M1219 2593 c-13 -16 -12 -17 4 -4 9 7 17 15 17 17 0 8 -8 3 -21 -13z"/>
<path d="M2654 2596 c-3 -8 -4 -22 -2 -30 2 -11 6 -9 15 9 6 15 7 27 2 31 -5
3 -12 -2 -15 -10z"/>
<path d="M1680 2569 c0 -5 -4 -8 -9 -5 -5 3 -12 -1 -15 -9 -3 -9 -17 -20 -31
-25 -14 -5 -25 -14 -25 -20 0 -5 -5 -10 -11 -10 -5 0 -76 -37 -157 -82 -81
-45 -156 -81 -167 -80 -15 1 -16 -1 -6 -7 11 -7 7 -13 -15 -25 -32 -17 -60
-45 -88 -89 -41 -66 9 -156 174 -308 49 -46 90 -90 90 -97 0 -7 4 -11 9 -8 11
7 33 -18 24 -27 -3 -4 -3 -7 1 -7 3 0 10 10 15 22 14 40 -87 235 -182 351 -22
26 -38 49 -36 51 4 4 57 37 254 155 58 35 108 62 110 59 3 -2 12 -117 22 -254
18 -266 23 -723 10 -892 l-9 -102 31 -11 c17 -6 31 -12 31 -12 1 -1 22 -159
48 -352 l47 -350 120 -3 c171 -4 320 35 599 158 138 60 137 59 151 143 3 21 9
35 13 33 7 -4 8 6 3 67 0 10 -5 15 -11 12 -6 -4 -10 15 -10 50 0 42 3 54 13
49 9 -6 9 -4 -1 8 -9 11 -10 23 -3 39 5 13 12 36 15 52 7 29 26 38 26 11 0 -9
6 -14 13 -11 6 2 11 10 9 16 -3 15 11 14 26 -1 16 -16 15 -28 -3 -28 -23 0
-18 -15 10 -30 14 -7 25 -17 25 -22 0 -4 5 -8 12 -8 6 0 1 11 -11 24 -13 14
-20 30 -16 36 11 17 -25 51 -47 44 -13 -4 -18 0 -17 13 1 37 17 57 55 70 21 7
28 11 14 8 -14 -3 -35 -5 -48 -5 -13 0 -21 -4 -18 -9 7 -11 -117 -41 -174 -41
-28 0 -40 -3 -32 -9 8 -5 -58 -13 -161 -21 -134 -10 -192 -10 -248 -2 -41 7
-101 12 -134 13 -41 2 -69 8 -88 21 -32 23 -61 74 -53 94 3 8 2 13 -3 10 -10
-6 -35 92 -51 194 -5 36 -12 160 -15 275 -3 116 -10 284 -15 375 -5 91 -10
238 -10 327 0 89 -3 168 -6 177 -7 18 -44 22 -44 5z"/>
<path d="M4980 2462 c-201 -64 -367 -117 -369 -119 -2 -2 -2 -5 0 -8 3 -2 77
19 164 46 88 28 201 63 250 79 236 74 335 107 342 113 14 15 -36 1 -387 -111z"/>
<path d="M1174 2538 l-19 -23 23 19 c21 18 27 26 19 26 -2 0 -12 -10 -23 -22z"/>
<path d="M1130 2485 c-13 -14 -19 -25 -14 -25 8 1 50 50 41 50 -2 0 -14 -11
-27 -25z"/>
<path d="M1083 2428 c-11 -13 -23 -30 -27 -38 -4 -8 4 -1 19 15 14 17 30 29
36 27 6 -1 8 2 4 8 -8 13 -8 13 -32 -12z"/>
<path d="M5075 2329 c-187 -60 -358 -114 -380 -121 -22 -6 -34 -13 -28 -15 7
-3 34 2 60 10 532 169 689 220 692 223 17 16 -45 -2 -344 -97z"/>
<path d="M3674 2420 c-5 -5 -34 -23 -64 -39 -30 -17 -51 -31 -47 -31 16 0 116
55 121 68 6 14 3 15 -10 2z"/>
<path d="M1026 2353 c-6 -14 -5 -15 5 -6 7 7 10 15 7 18 -3 3 -9 -2 -12 -12z"/>
<path d="M3475 2325 c-16 -8 -23 -14 -15 -14 8 0 26 6 40 14 32 18 15 18 -25
0z"/>
<path d="M3400 2295 c-14 -8 -20 -14 -15 -14 6 0 21 6 35 14 14 8 21 14 15 14
-5 0 -21 -6 -35 -14z"/>
<path d="M5095 2174 c-402 -131 -379 -123 -373 -130 5 -5 721 221 748 237 44
25 -57 -4 -375 -107z"/>
<path d="M3336 2265 c-11 -8 -16 -15 -10 -15 5 0 18 7 28 15 11 8 16 15 10 15
-5 0 -18 -7 -28 -15z"/>
<path d="M935 2230 c-14 -22 -25 -48 -25 -59 0 -20 39 -74 40 -55 0 6 -7 17
-15 24 -22 18 -19 45 10 90 14 22 23 40 20 40 -2 0 -16 -18 -30 -40z"/>
<path d="M3556 2245 c-9 -26 -7 -32 5 -12 6 10 9 21 6 23 -2 3 -7 -2 -11 -11z"/>
<path d="M3247 2202 c-15 -16 -15 -19 -2 -19 8 0 13 3 10 5 -3 3 0 11 6 19 17
20 5 16 -14 -5z"/>
<path d="M4567 2109 c-14 -8 -15 -14 -6 -30 6 -11 8 -27 5 -34 -3 -8 -1 -17 4
-20 6 -4 10 -11 10 -16 0 -6 -4 -8 -8 -5 -4 2 -8 -4 -8 -15 0 -17 3 -16 28 8
33 31 33 36 10 85 -14 31 -20 35 -35 27z"/>
<path d="M3157 2075 c-9 -19 -15 -35 -12 -35 7 0 37 61 33 66 -3 2 -12 -12
-21 -31z"/>
<path d="M966 2088 c3 -5 10 -6 15 -3 13 9 11 12 -6 12 -8 0 -12 -4 -9 -9z"/>
<path d="M3320 2090 c8 -5 22 -9 30 -9 10 0 8 3 -5 9 -27 12 -43 12 -25 0z"/>
<path d="M3450 2070 c0 -5 7 -7 15 -4 8 4 15 8 15 10 0 2 -7 4 -15 4 -8 0 -15
-4 -15 -10z"/>
<path d="M1010 2045 c13 -14 26 -25 28 -25 3 0 -5 11 -18 25 -13 14 -26 25
-28 25 -3 0 5 -11 18 -25z"/>
<path d="M4499 2065 c-1 -3 -2 -10 -3 -17 0 -6 -7 -13 -15 -16 -9 -3 -11 0 -5
9 7 12 5 12 -9 0 -19 -15 -23 -26 -5 -15 7 5 9 2 6 -8 -10 -24 34 -10 54 17
17 22 17 23 -4 17 -14 -3 -19 -1 -14 6 4 7 5 12 2 12 -3 0 -7 -2 -7 -5z"/>
<path d="M3318 2043 c6 -2 18 -2 25 0 6 3 1 5 -13 5 -14 0 -19 -2 -12 -5z"/>
<path d="M3240 2029 c0 -5 5 -7 10 -4 6 3 10 8 10 11 0 2 -4 4 -10 4 -5 0 -10
-5 -10 -11z"/>
<path d="M3406 1990 c-9 -17 -21 -28 -27 -25 -5 3 -6 -1 -3 -10 5 -12 12 -8
31 20 14 20 23 38 21 40 -2 3 -12 -9 -22 -25z"/>
<path d="M3227 1976 c-3 -19 -2 -48 3 -63 7 -22 8 -16 9 35 1 69 -4 80 -12 28z"/>
<path d="M4405 1990 c-3 -6 1 -7 9 -4 18 7 21 14 7 14 -6 0 -13 -4 -16 -10z"/>
<path d="M2661 1975 c1 -19 18 -51 18 -35 0 8 -4 22 -9 30 -5 8 -9 11 -9 5z"/>
<path d="M4354 1933 c-15 -20 -23 -33 -16 -29 13 8 56 66 49 66 -3 0 -17 -17
-33 -37z"/>
<path d="M3331 1944 c0 -11 3 -14 6 -6 3 7 2 16 -1 19 -3 4 -6 -2 -5 -13z"/>
<path d="M4507 1900 c-19 -27 -37 -47 -42 -42 -5 4 -5 1 -1 -6 4 -7 2 -20 -5
-28 -6 -8 -9 -17 -6 -20 3 -3 13 9 23 28 9 18 30 52 46 76 16 23 27 42 24 42
-3 0 -21 -22 -39 -50z"/>
<path d="M1121 1938 c2 -2 19 -16 38 -33 29 -26 32 -27 22 -7 -8 14 -8 22 -1
22 5 0 10 5 10 11 0 8 -5 7 -15 -1 -12 -10 -19 -10 -27 -2 -7 7 -16 12 -22 12
-5 0 -7 -1 -5 -2z"/>
<path d="M3364 1915 c-4 -8 -10 -12 -15 -9 -5 3 -6 -1 -3 -9 3 -8 -2 -20 -11
-27 -8 -7 -15 -19 -15 -27 0 -8 -5 -11 -10 -8 -6 4 -9 3 -8 -2 5 -18 -24 -83
-34 -77 -6 4 -8 3 -5 -3 4 -6 -9 -41 -28 -79 -19 -38 -35 -73 -35 -79 1 -5 28
44 61 110 33 66 74 144 90 173 17 28 28 52 24 52 -3 0 -8 -7 -11 -15z"/>
<path d="M4303 1868 c-11 -13 -23 -30 -27 -38 -5 -9 -2 -9 7 2 8 10 16 17 18
15 2 -1 3 0 1 2 -1 2 5 13 15 23 9 10 14 18 11 18 -2 0 -14 -10 -25 -22z"/>
<path d="M1220 1856 c0 -2 8 -10 18 -17 15 -13 16 -12 3 4 -13 16 -21 21 -21
13z"/>
<path d="M1295 1825 c22 -19 44 -35 48 -35 5 0 -10 16 -33 35 -23 19 -45 35
-48 35 -4 -1 11 -16 33 -35z"/>
<path d="M3081 1834 c0 -11 3 -14 6 -6 3 7 2 16 -1 19 -3 4 -6 -2 -5 -13z"/>
<path d="M3910 1795 c-11 -13 -10 -14 4 -9 9 3 16 10 16 15 0 13 -6 11 -20 -6z"/>
<path d="M4028 1776 c2 -20 8 -33 13 -30 13 8 11 27 -4 48 -12 16 -13 14 -9
-18z"/>
<path d="M3071 1784 c0 -11 3 -14 6 -6 3 7 2 16 -1 19 -3 4 -6 -2 -5 -13z"/>
<path d="M4425 1759 c-4 -6 -5 -12 -2 -15 2 -3 7 2 10 11 7 17 1 20 -8 4z"/>
<path d="M1365 1735 c40 -34 65 -48 65 -37 0 6 -10 13 -22 16 -22 7 -23 7 -3
17 19 9 19 9 -2 5 -12 -2 -27 2 -34 10 -6 8 -17 14 -23 14 -6 0 3 -11 19 -25z"/>
<path d="M4045 1717 c-5 -18 -3 -33 4 -40 6 -6 11 -22 12 -36 0 -15 3 -21 5
-15 2 5 1 35 -4 65 -8 49 -10 51 -17 26z"/>
<path d="M4395 1693 c-8 -20 -13 -38 -10 -41 3 -3 5 -3 5 0 0 3 7 22 15 42 8
20 13 36 10 36 -2 0 -12 -16 -20 -37z"/>
<path d="M761 1694 c0 -25 2 -26 8 -9 8 19 9 18 13 -5 5 -21 5 -22 7 -4 0 12
-6 27 -14 34 -13 11 -15 8 -14 -16z"/>
<path d="M3856 1708 c3 -5 10 -6 15 -3 13 9 11 12 -6 12 -8 0 -12 -4 -9 -9z"/>
<path d="M3826 1648 c-8 -32 -7 -66 2 -72 5 -3 8 17 8 45 0 27 -1 49 -2 49 -1
0 -4 -10 -8 -22z"/>
<path d="M4193 1658 c-8 -14 -18 -216 -10 -208 3 3 7 46 10 95 3 50 9 98 12
108 8 20 0 23 -12 5z"/>
<path d="M2990 1645 c-7 -9 -8 -15 -2 -15 5 0 12 7 16 15 3 8 4 15 2 15 -2 0
-9 -7 -16 -15z"/>
<path d="M3026 1647 c3 -10 9 -15 12 -12 3 3 0 11 -7 18 -10 9 -11 8 -5 -6z"/>
<path d="M754 1548 c1 -67 6 -102 15 -110 11 -11 12 -10 6 2 -5 8 -12 57 -16
110 l-7 95 2 -97z"/>
<path d="M4365 1624 c-4 -10 -12 -32 -20 -49 -8 -16 -16 -46 -20 -65 -3 -20 8
0 25 44 16 44 28 82 25 84 -2 3 -7 -4 -10 -14z"/>
<path d="M867 1582 c3 -12 11 -23 19 -26 20 -8 17 8 -5 28 -19 17 -19 17 -14
-2z"/>
<path d="M2929 1568 c-13 -19 -16 -27 -7 -20 13 10 17 10 20 0 3 -8 7 -6 11 6
4 10 3 15 -3 11 -14 -9 -12 9 2 23 7 7 9 12 6 12 -4 0 -17 -15 -29 -32z"/>
<path d="M2761 1554 c0 -21 4 -48 9 -59 6 -13 7 -1 3 35 -7 66 -13 78 -12 24z"/>
<path d="M3006 1560 c9 -32 54 -98 90 -130 16 -14 11 -5 -13 23 -23 26 -51 67
-62 90 -12 23 -19 31 -15 17z"/>
<path d="M3040 1574 c0 -13 57 -104 66 -104 4 0 2 6 -4 13 -6 6 -22 32 -36 57
-14 25 -26 40 -26 34z"/>
<path d="M3177 1564 c5 -13 -33 -95 -49 -105 -6 -4 -7 -9 -1 -12 9 -6 27 25
59 99 11 26 11 31 -1 31 -7 0 -11 -6 -8 -13z"/>
<path d="M4080 1557 c0 -4 7 -21 15 -37 8 -16 12 -35 9 -43 -3 -8 8 -37 25
-63 37 -59 41 -48 5 13 -14 24 -22 48 -19 53 3 5 -3 26 -14 47 -11 21 -20 34
-21 30z"/>
<path d="M909 1526 c6 -8 10 -18 9 -24 -3 -10 1 -12 22 -12 16 0 -6 36 -26 44
-14 5 -15 4 -5 -8z"/>
<path d="M1810 1534 c0 -13 98 -129 110 -131 19 -1 50 -16 50 -23 0 -16 107
-50 181 -56 85 -7 212 13 288 47 24 10 53 19 65 20 16 1 14 3 -9 10 -16 4 -45
6 -65 3 -59 -9 -320 14 -396 35 -39 11 -103 38 -142 61 -73 41 -82 45 -82 34z"/>
<path d="M3816 1460 c5 -87 30 -259 38 -268 6 -5 -3 93 -10 123 -3 11 -12 67
-19 125 l-14 105 5 -85z"/>
<path d="M1880 1520 c0 -5 5 -10 10 -10 6 0 10 5 10 10 0 6 -4 10 -10 10 -5 0
-10 -4 -10 -10z"/>
<path d="M2923 1518 c-15 -20 -25 -38 -20 -38 3 0 12 11 21 25 17 26 16 35 -1
13z"/>
<path d="M1914 1511 c10 -15 86 -54 86 -43 0 5 -17 17 -37 27 -55 28 -56 29
-49 16z"/>
<path d="M3964 1509 c-3 -6 -1 -16 4 -21 6 -6 9 -25 7 -42 -4 -25 -3 -27 3 -7
l8 24 15 -24 c9 -13 28 -48 43 -77 15 -30 29 -52 32 -49 5 5 -53 111 -86 157
-24 33 -25 40 -6 40 8 0 33 -28 55 -62 23 -35 41 -59 41 -54 0 4 -13 28 -30
53 -16 24 -30 48 -30 52 0 19 -45 27 -56 10z"/>
<path d="M1792 1498 c-7 -7 -12 -16 -12 -21 0 -5 7 -1 16 8 9 9 14 18 12 20
-2 3 -10 -1 -16 -7z"/>
<path d="M2866 1464 c-4 -9 -4 -19 -1 -22 2 -3 7 3 11 12 4 9 4 19 1 22 -2 3
-7 -3 -11 -12z"/>
<path d="M4130 1463 c0 -6 8 -17 18 -24 16 -13 16 -13 2 6 -8 11 -16 22 -17
24 -2 2 -3 0 -3 -6z"/>
<path d="M4300 1434 c-15 -39 -33 -114 -29 -119 3 -2 14 30 25 71 21 73 23 98
4 48z"/>
<path d="M990 1444 c0 -5 14 -25 31 -44 l30 -35 -27 40 c-16 22 -29 42 -31 44
-2 2 -3 0 -3 -5z"/>
<path d="M2068 1443 c7 -3 16 -2 19 1 4 3 -2 6 -13 5 -11 0 -14 -3 -6 -6z"/>
<path d="M3886 1403 c1 -27 7 -59 13 -73 11 -24 11 -23 5 5 -4 17 -6 49 -5 73
1 23 -2 42 -7 42 -5 0 -8 -21 -6 -47z"/>
<path d="M2841 1398 c-14 -39 -11 -41 14 -15 11 11 14 17 6 12 -10 -6 -12 -2
-6 14 10 34 -2 24 -14 -11z"/>
<path d="M880 1375 c0 -2 6 -8 13 -14 10 -8 14 -7 14 2 0 8 -6 14 -14 14 -7 0
-13 -1 -13 -2z"/>
<path d="M3096 1365 c-9 -26 -7 -32 5 -12 6 10 9 21 6 23 -2 3 -7 -2 -11 -11z"/>
<path d="M4086 1367 c3 -10 9 -15 12 -12 3 3 0 11 -7 18 -10 9 -11 8 -5 -6z"/>
<path d="M1047 1353 c-4 -3 -7 -11 -7 -17 0 -6 4 -5 9 2 6 11 13 7 30 -16 15
-22 18 -32 9 -35 -8 -3 -6 -6 5 -6 9 -1 26 -16 37 -33 11 -18 20 -28 20 -23 0
10 -87 135 -93 135 -2 0 -7 -3 -10 -7z"/>
<path d="M3998 1326 c6 -19 7 -19 10 -2 3 15 6 16 14 5 8 -12 9 -12 6 0 -2 8
-11 15 -20 17 -11 1 -14 -4 -10 -20z"/>
<path d="M4111 1320 c14 -31 19 -36 19 -24 0 6 -7 19 -16 30 -14 18 -14 18 -3
-6z"/>
<path d="M3053 1276 c-11 -18 -18 -38 -14 -45 5 -7 14 4 24 30 21 53 18 57
-10 15z"/>
<path d="M3916 1294 c-9 -24 -7 -31 4 -14 8 13 10 13 10 -2 0 -9 4 -19 10 -23
5 -3 5 7 -1 25 -13 34 -15 36 -23 14z"/>
<path d="M4087 1274 c-11 -11 -8 -26 3 -19 6 4 13 -7 16 -25 4 -17 11 -33 16
-36 6 -4 7 3 3 17 -12 40 -31 70 -38 63z"/>
<path d="M4136 1265 c4 -11 24 -67 43 -125 23 -68 37 -97 39 -82 2 13 -1 28
-6 35 -6 7 -17 37 -26 67 -9 30 -26 71 -37 90 -11 19 -17 26 -13 15z"/>
<path d="M4252 1250 c0 -14 2 -19 5 -12 2 6 2 18 0 25 -3 6 -5 1 -5 -13z"/>
<path d="M3910 1239 c0 -5 5 -7 10 -4 6 3 10 8 10 11 0 2 -4 4 -10 4 -5 0 -10
-5 -10 -11z"/>
<path d="M869 1238 c-6 -21 -5 -39 2 -44 5 -3 8 6 7 20 -2 22 -6 33 -9 24z"/>
<path d="M3912 1200 c0 -14 2 -19 5 -12 2 6 2 18 0 25 -3 6 -5 1 -5 -13z"/>
<path d="M4230 1165 c-6 -31 -10 -59 -7 -61 2 -2 9 21 16 52 6 32 9 59 7 61
-2 3 -10 -21 -16 -52z"/>
<path d="M1165 1200 c6 -10 -16 -12 -113 -7 -67 3 -124 2 -126 -2 -11 -16 14
-33 55 -36 41 -4 36 -1 -18 11 -13 2 -23 8 -23 13 0 4 54 6 120 3 82 -3 120
-1 120 6 0 6 -5 14 -12 18 -7 5 -8 3 -3 -6z"/>
<path d="M840 1191 c0 -5 5 -13 10 -16 6 -3 10 -2 10 4 0 5 -4 13 -10 16 -5 3
-10 2 -10 -4z"/>
<path d="M3016 1165 c-9 -26 -7 -32 5 -12 6 10 9 21 6 23 -2 3 -7 -2 -11 -11z"/>
<path d="M4130 1168 c0 -9 5 -20 10 -23 13 -8 13 5 0 25 -8 13 -10 13 -10 -2z"/>
<path d="M3661 1157 c-9 -11 0 -14 47 -14 l57 0 -50 6 c-49 7 -49 7 -15 12
l35 6 -31 1 c-17 1 -37 -4 -43 -11z"/>
<path d="M832 1140 c-4 -62 56 -164 112 -191 21 -10 21 -10 2 5 -11 9 -21 24
-22 33 -2 9 -13 30 -25 47 -12 16 -22 36 -22 43 0 8 -7 11 -15 8 -12 -4 -13
-3 -2 10 10 12 10 15 -3 15 -9 0 -17 11 -20 28 -4 26 -4 26 -5 2z"/>
<path d="M856 1144 c-9 -23 -8 -24 12 -24 14 0 15 2 2 10 -10 6 -11 10 -2 10
6 0 12 5 12 10 0 16 -17 12 -24 -6z"/>
<path d="M1110 1150 l-75 -6 84 -2 c66 -2 87 -6 98 -19 13 -16 13 -15 1 6 -17
30 -14 29 -108 21z"/>
<path d="M2851 1145 c0 -5 6 -21 13 -33 13 -24 13 -24 13 7 0 18 -4 27 -7 20
-6 -8 -9 -7 -13 2 -3 8 -6 10 -6 4z"/>
<path d="M3860 1141 c0 -6 4 -13 10 -16 6 -3 7 1 4 9 -7 18 -14 21 -14 7z"/>
<path d="M2993 1117 c0 -12 -10 -42 -21 -67 -19 -43 -20 -44 -29 -22 l-9 24
-13 -28 c-11 -24 -10 -26 3 -15 13 11 17 10 24 -9 7 -19 12 -12 35 51 15 40
24 76 20 80 -5 5 -9 -2 -10 -14z"/>
<path d="M1900 1111 c0 -8 90 -3 99 5 2 2 -19 4 -47 4 -29 0 -52 -4 -52 -9z"/>
<path d="M4151 1110 c0 -8 4 -24 9 -35 5 -13 9 -14 9 -5 0 8 -4 24 -9 35 -5
13 -9 14 -9 5z"/>
<path d="M2113 1098 c7 -4 53 -7 102 -6 103 1 88 6 -32 10 -44 2 -76 0 -70 -4z"/>
<path d="M1221 1078 c-5 -15 -2 -27 11 -40 10 -10 18 -22 18 -27 0 -5 7 -12
16 -15 11 -4 8 5 -11 29 -16 22 -25 44 -22 56 7 26 -2 24 -12 -3z"/>
<path d="M2318 1093 c7 -3 16 -2 19 1 4 3 -2 6 -13 5 -11 0 -14 -3 -6 -6z"/>
<path d="M1250 1061 c5 -11 15 -23 21 -27 6 -3 3 5 -6 20 -20 30 -30 35 -15 7z"/>
<path d="M3722 1070 c-40 -5 -76 -11 -80 -15 -4 -3 29 -3 73 2 44 4 141 8 215
7 90 0 120 2 90 7 -57 9 -203 9 -298 -1z"/>
<path d="M4083 1053 c9 -2 23 -2 30 0 6 3 -1 5 -18 5 -16 0 -22 -2 -12 -5z"/>
<path d="M4138 1043 c7 -3 16 -2 19 1 4 3 -2 6 -13 5 -11 0 -14 -3 -6 -6z"/>
<path d="M1295 990 c9 -16 18 -30 21 -30 2 0 -2 14 -11 30 -9 17 -18 30 -21
30 -2 0 2 -13 11 -30z"/>
<path d="M2920 982 c0 -5 7 -15 15 -22 8 -7 15 -9 15 -6 0 4 -7 14 -15 22 -8
9 -15 11 -15 6z"/>
<path d="M2824 961 c4 -6 16 -16 28 -22 15 -8 18 -8 14 0 -4 6 -16 16 -28 22
-15 8 -18 8 -14 0z"/>
<path d="M1300 940 c6 -11 13 -20 16 -20 2 0 0 9 -6 20 -6 11 -13 20 -16 20
-2 0 0 -9 6 -20z"/>
<path d="M1329 934 c6 -12 7 -24 4 -28 -3 -3 -1 -6 5 -6 16 0 15 12 -4 36 -15
18 -15 18 -5 -2z"/>
<path d="M995 930 c19 -8 73 -14 64 -6 -2 2 -22 6 -44 9 -28 5 -34 4 -20 -3z"/>
<path d="M2751 934 c11 -3 20 -22 24 -52 8 -46 8 -46 16 -18 5 17 6 32 4 35
-3 2 -6 -2 -6 -10 -1 -8 -4 -1 -8 16 -4 20 -13 30 -26 32 -14 1 -15 0 -4 -3z"/>
<path d="M2731 910 c-1 -34 51 -190 64 -190 2 0 -1 12 -7 28 -6 15 -21 61 -34
102 -13 41 -23 68 -23 60z"/>
<path d="M1098 903 c6 -2 10 -8 7 -13 -3 -4 -1 -19 4 -32 8 -20 9 -18 8 15 -1
27 -5 37 -16 36 -11 0 -12 -2 -3 -6z"/>
<path d="M2901 852 c-11 -33 -21 -63 -21 -67 0 -4 -8 -14 -17 -22 -17 -13 -16
-13 2 -4 13 6 28 33 42 77 28 84 23 95 -6 16z"/>
<path d="M1360 884 c0 -6 7 -19 16 -30 14 -18 14 -18 3 6 -14 31 -19 36 -19
24z"/>
<path d="M2797 812 c1 -8 3 -16 3 -18 0 -3 5 -2 10 1 6 3 10 11 10 16 0 6 -4
8 -9 5 -5 -4 -11 -3 -14 1 -2 5 -2 2 0 -5z"/>
<path d="M1210 810 c-24 -15 -7 -18 20 -3 14 7 18 13 10 13 -8 0 -22 -4 -30
-10z"/>
<path d="M1410 781 c0 -5 5 -13 10 -16 6 -3 10 -2 10 4 0 5 -4 13 -10 16 -5 3
-10 2 -10 -4z"/>
<path d="M1333 765 c-3 -9 -3 -18 -1 -21 3 -3 8 4 11 16 6 23 -1 27 -10 5z"/>
<path d="M1440 730 c6 -11 8 -26 4 -33 -4 -6 -3 -9 1 -4 7 6 55 -72 55 -88 0
-2 -21 -6 -47 -8 -47 -3 -47 -3 10 -5 l57 -2 -40 80 c-22 44 -43 80 -45 80 -3
0 -1 -9 5 -20z"/>
<path d="M1124 714 c3 -9 6 -30 6 -47 1 -23 3 -28 9 -17 11 19 2 80 -11 80 -6
0 -7 -7 -4 -16z"/>
<path d="M1323 723 c9 -2 23 -2 30 0 6 3 -1 5 -18 5 -16 0 -22 -2 -12 -5z"/>
<path d="M2755 721 c3 -5 -4 -13 -16 -16 -11 -4 -18 -9 -16 -12 3 -2 17 2 32
10 23 12 25 15 11 20 -9 4 -14 3 -11 -2z"/>
<path d="M1440 660 c0 -5 5 -10 11 -10 5 0 7 5 4 10 -3 6 -8 10 -11 10 -2 0
-4 -4 -4 -10z"/>
<path d="M1287 626 c-6 -15 1 -26 14 -26 5 0 6 7 3 15 -4 8 -4 15 -1 15 2 0
21 -7 40 -15 20 -8 42 -15 49 -14 15 0 -71 38 -88 38 -7 1 -14 -5 -17 -13z"/>
<path d="M1144 613 c13 -24 93 -73 93 -58 0 8 -4 12 -8 9 -5 -3 -17 4 -29 16
-11 11 -20 17 -20 13 0 -3 -10 2 -22 13 -12 10 -18 13 -14 7z"/>
<path d="M1334 586 c11 -9 29 -16 40 -15 17 1 16 2 -6 9 -14 4 -32 11 -40 15
-7 3 -4 -1 6 -9z"/>
<path d="M1408 563 c6 -2 18 -2 25 0 6 3 1 5 -13 5 -14 0 -19 -2 -12 -5z"/>
<path d="M1513 563 c9 -2 17 -8 17 -12 0 -4 7 -16 15 -27 14 -17 14 -15 0 14
-9 19 -23 32 -33 31 -16 -1 -16 -2 1 -6z"/>
<path d="M1275 520 c3 -5 11 -10 16 -10 6 0 7 5 4 10 -3 6 -11 10 -16 10 -6 0
-7 -4 -4 -10z"/>
<path d="M1560 486 c0 -8 4 -17 9 -20 5 -4 7 3 4 14 -6 23 -13 26 -13 6z"/>
<path d="M1364 478 c8 -4 25 -4 38 1 20 8 18 9 -15 8 -24 -1 -32 -4 -23 -9z"/>
<path d="M1476 440 c10 -4 38 -11 60 -14 35 -6 42 -4 48 11 6 14 5 16 -5 6 -7
-7 -20 -13 -28 -13 -11 0 -12 3 -4 8 6 4 -12 7 -39 8 -30 0 -43 -2 -32 -6z"/>
</g>
</svg>
